<?xml version="1.0" encoding="utf-8"?>
<!-- Generator: Adobe Illustrator 19.0.1, SVG Export Plug-In . SVG Version: 6.00 Build 0)  -->
<svg version="1.1" id="USA" xmlns="http://www.w3.org/2000/svg" xmlns:xlink="http://www.w3.org/1999/xlink" x="0px" y="0px"
	 viewBox="0 0 127.4 75.8" style="enable-background:new 0 0 127.4 75.8;" xml:space="preserve">
<style type="text/css">
	.st0{fill:#2C2E73;}
	.st1{fill:#FFFFFF;}
	.st2{fill:none;}
	.st3{clip-path:url(#SVGID_2_);}
	.st4{fill:#FFFFFF;stroke:#FFFFFF;stroke-width:0.6728;stroke-linecap:round;stroke-linejoin:round;stroke-miterlimit:10;}
	.st5{fill:#ED1C2E;}
	.st6{fill:none;stroke:#FFFFFF;stroke-width:0.6728;stroke-linecap:round;stroke-linejoin:round;stroke-miterlimit:10;}
	.st7{fill:url(#SVGID_3_);}
	.st8{fill:url(#SVGID_4_);}
	.st9{fill:url(#SVGID_5_);}
	.st10{fill:url(#SVGID_6_);}
	.st11{fill:url(#SVGID_7_);}
	.st12{fill:url(#SVGID_8_);}
	.st13{fill:url(#SVGID_9_);}
	.st14{fill:url(#SVGID_10_);}
	.st15{fill:url(#SVGID_11_);}
	.st16{fill:url(#SVGID_12_);}
	.st17{fill:url(#SVGID_13_);}
	.st18{fill:url(#SVGID_14_);}
	.st19{fill:url(#SVGID_15_);}
	.st20{fill:url(#SVGID_16_);}
	.st21{fill:url(#SVGID_17_);}
	.st22{fill:url(#SVGID_18_);}
	.st23{fill:url(#SVGID_19_);}
	.st24{fill:url(#SVGID_20_);}
	.st25{fill:url(#SVGID_21_);}
	.st26{fill:url(#SVGID_22_);}
	.st27{fill:url(#SVGID_23_);}
	.st28{fill:url(#SVGID_24_);}
	.st29{fill:url(#SVGID_25_);}
	.st30{fill:url(#SVGID_26_);}
	.st31{fill:url(#SVGID_27_);}
	.st32{fill:url(#SVGID_28_);}
	.st33{fill:url(#SVGID_29_);}
	.st34{fill:url(#SVGID_30_);}
	.st35{fill:url(#SVGID_31_);}
	.st36{fill:url(#SVGID_32_);}
	.st37{fill:#EB0029;}
</style>
<g>
	<g>
		<g>
			<g>
				<path class="st0" d="M8.9,74.4H3.1v-14h5.6c2.7,0,4.3,1.5,4.3,3.9c0,1.6-1,2.6-1.7,2.9c0.8,0.4,1.9,1.3,1.9,3.2
					C13.2,73,11.4,74.4,8.9,74.4z M8.5,62.8H5.8V66h2.7c1.2,0,1.8-0.6,1.8-1.6C10.3,63.5,9.7,62.8,8.5,62.8z M8.7,68.5H5.8v3.4h2.9
					c1.2,0,1.8-0.8,1.8-1.7C10.5,69.3,9.9,68.5,8.7,68.5z"/>
				<path class="st0" d="M19.9,74.4v-0.9c-0.7,0.7-1.3,1-2.5,1c-1.2,0-2-0.3-2.6-0.9c-0.6-0.6-0.8-1.4-0.8-2.3c0-1.6,1.1-3,3.5-3
					h2.4v-0.5c0-1.1-0.6-1.6-1.9-1.6c-1,0-1.4,0.2-2,0.8l-1.6-1.6c1-1.1,2-1.4,3.7-1.4c2.9,0,4.4,1.2,4.4,3.6v6.8H19.9z M19.9,70.1
					h-2c-0.9,0-1.4,0.4-1.4,1.2c0,0.7,0.5,1.2,1.5,1.2c0.7,0,1.2-0.1,1.6-0.5c0.3-0.3,0.4-0.7,0.4-1.3V70.1z"/>
				<path class="st0" d="M30.2,74.4l-2.5-4.3l-1.1,1.2v3.1H24v-14h2.6v8l3.4-4.2h3.1l-3.7,4.1l3.9,6.1H30.2z"/>
				<path class="st0" d="M35.7,70.1c0,1.3,0.8,2.3,2.2,2.3c1.1,0,1.7-0.3,2.3-1l1.6,1.5c-1,1-2,1.6-3.9,1.6c-2.4,0-4.7-1.1-4.7-5.3
					c0-3.3,1.8-5.2,4.5-5.2c2.9,0,4.5,2.1,4.5,4.9v1.1H35.7z M39.4,67.2c-0.3-0.6-0.8-1.1-1.7-1.1c-0.9,0-1.4,0.5-1.7,1.1
					c-0.2,0.4-0.2,0.6-0.2,1.1h3.9C39.6,67.8,39.6,67.6,39.4,67.2z"/>
				<path class="st0" d="M48.9,66.9c-0.4-0.4-0.7-0.6-1.4-0.6c-0.8,0-1.7,0.6-1.7,1.9v6.2h-2.6V64.1h2.5v1c0.5-0.6,1.5-1.1,2.6-1.1
					c1,0,1.7,0.3,2.4,1L48.9,66.9z"/>
				<path class="st0" d="M51.1,62.4v-2.1h2.6v2.1H51.1z M51.2,74.4V64.1h2.6v10.3H51.2z"/>
				<path class="st0" d="M57.4,70.1c0,1.3,0.8,2.3,2.2,2.3c1.1,0,1.7-0.3,2.3-1l1.6,1.5c-1,1-2.1,1.6-3.9,1.6
					c-2.4,0-4.7-1.1-4.7-5.3c0-3.3,1.8-5.2,4.5-5.2c2.9,0,4.5,2.1,4.5,4.9v1.1H57.4z M61.1,67.2c-0.3-0.6-0.8-1.1-1.7-1.1
					c-0.9,0-1.4,0.5-1.7,1.1c-0.2,0.4-0.2,0.6-0.2,1.1h3.9C61.3,67.8,61.2,67.6,61.1,67.2z"/>
				<path class="st0" d="M68.4,74.5c-1.6,0-3.1-0.2-4.4-1.5l1.7-1.7c0.8,0.8,1.9,1,2.7,1c0.9,0,1.8-0.3,1.8-1.1
					c0-0.5-0.3-0.9-1.1-0.9l-1.6-0.2c-1.9-0.2-3-1-3-2.9c0-2.1,1.9-3.3,4-3.3c1.6,0,2.9,0.3,3.9,1.2l-1.6,1.6
					c-0.6-0.5-1.5-0.7-2.4-0.7c-1,0-1.5,0.5-1.5,1c0,0.4,0.2,0.8,1.1,0.9l1.6,0.2c2,0.2,3.1,1.3,3.1,3
					C72.8,73.4,70.8,74.5,68.4,74.5z"/>
				<path class="st0" d="M80.7,74.5c-2.9,0-5.2-1.9-5.2-4.9v-9.2h2.7v9.1c0,1.6,0.9,2.6,2.4,2.6c1.5,0,2.4-1,2.4-2.6v-9.1h2.7v9.2
					C85.9,72.6,83.6,74.5,80.7,74.5z"/>
				<path class="st0" d="M91.6,74.5c-2.1,0-3.7-0.5-5.1-1.9l1.8-1.8c0.9,0.9,2.1,1.2,3.4,1.2c1.6,0,2.5-0.6,2.5-1.7
					c0-0.5-0.1-0.9-0.4-1.2c-0.3-0.3-0.6-0.4-1.2-0.5l-1.7-0.2c-1.2-0.2-2.1-0.6-2.7-1.2c-0.7-0.7-1-1.6-1-2.8
					c0-2.5,1.9-4.3,4.9-4.3c1.9,0,3.3,0.5,4.5,1.6l-1.7,1.7c-0.9-0.8-2-1-2.9-1c-1.5,0-2.2,0.8-2.2,1.8c0,0.4,0.1,0.7,0.4,1
					c0.3,0.3,0.7,0.5,1.3,0.6l1.7,0.2c1.3,0.2,2.1,0.5,2.7,1.1c0.7,0.7,1.1,1.7,1.1,3C96.8,73,94.6,74.5,91.6,74.5z"/>
				<path class="st0" d="M106.2,74.4l-0.8-2.5h-5l-0.8,2.5h-2.9l5.1-14h2.1l5.1,14H106.2z"/>
			</g>
		</g>
		<g>
			<g>
				<path class="st0" d="M8.9,74.4H3.1v-14h5.6c2.7,0,4.3,1.5,4.3,3.9c0,1.6-1,2.6-1.7,2.9c0.8,0.4,1.9,1.3,1.9,3.2
					C13.2,73,11.4,74.4,8.9,74.4z M8.5,62.8H5.8V66h2.7c1.2,0,1.8-0.6,1.8-1.6C10.3,63.5,9.7,62.8,8.5,62.8z M8.7,68.5H5.8v3.4h2.9
					c1.2,0,1.8-0.8,1.8-1.7C10.5,69.3,9.9,68.5,8.7,68.5z"/>
				<path class="st0" d="M19.9,74.4v-0.9c-0.7,0.7-1.3,1-2.5,1c-1.2,0-2-0.3-2.6-0.9c-0.6-0.6-0.8-1.4-0.8-2.3c0-1.6,1.1-3,3.5-3
					h2.4v-0.5c0-1.1-0.6-1.6-1.9-1.6c-1,0-1.4,0.2-2,0.8l-1.6-1.6c1-1.1,2-1.4,3.7-1.4c2.9,0,4.4,1.2,4.4,3.6v6.8H19.9z M19.9,70.1
					h-2c-0.9,0-1.4,0.4-1.4,1.2c0,0.7,0.5,1.2,1.5,1.2c0.7,0,1.2-0.1,1.6-0.5c0.3-0.3,0.4-0.7,0.4-1.3V70.1z"/>
				<path class="st0" d="M30.2,74.4l-2.5-4.3l-1.1,1.2v3.1H24v-14h2.6v8l3.4-4.2h3.1l-3.7,4.1l3.9,6.1H30.2z"/>
				<path class="st0" d="M35.7,70.1c0,1.3,0.8,2.3,2.2,2.3c1.1,0,1.7-0.3,2.3-1l1.6,1.5c-1,1-2,1.6-3.9,1.6c-2.4,0-4.7-1.1-4.7-5.3
					c0-3.3,1.8-5.2,4.5-5.2c2.9,0,4.5,2.1,4.5,4.9v1.1H35.7z M39.4,67.2c-0.3-0.6-0.8-1.1-1.7-1.1c-0.9,0-1.4,0.5-1.7,1.1
					c-0.2,0.4-0.2,0.6-0.2,1.1h3.9C39.6,67.8,39.6,67.6,39.4,67.2z"/>
				<path class="st0" d="M48.9,66.9c-0.4-0.4-0.7-0.6-1.4-0.6c-0.8,0-1.7,0.6-1.7,1.9v6.2h-2.6V64.1h2.5v1c0.5-0.6,1.5-1.1,2.6-1.1
					c1,0,1.7,0.3,2.4,1L48.9,66.9z"/>
				<path class="st0" d="M51.1,62.4v-2.1h2.6v2.1H51.1z M51.2,74.4V64.1h2.6v10.3H51.2z"/>
				<path class="st0" d="M57.4,70.1c0,1.3,0.8,2.3,2.2,2.3c1.1,0,1.7-0.3,2.3-1l1.6,1.5c-1,1-2.1,1.6-3.9,1.6
					c-2.4,0-4.7-1.1-4.7-5.3c0-3.3,1.8-5.2,4.5-5.2c2.9,0,4.5,2.1,4.5,4.9v1.1H57.4z M61.1,67.2c-0.3-0.6-0.8-1.1-1.7-1.1
					c-0.9,0-1.4,0.5-1.7,1.1c-0.2,0.4-0.2,0.6-0.2,1.1h3.9C61.3,67.8,61.2,67.6,61.1,67.2z"/>
				<path class="st0" d="M68.4,74.5c-1.6,0-3.1-0.2-4.4-1.5l1.7-1.7c0.8,0.8,1.9,1,2.7,1c0.9,0,1.8-0.3,1.8-1.1
					c0-0.5-0.3-0.9-1.1-0.9l-1.6-0.2c-1.9-0.2-3-1-3-2.9c0-2.1,1.9-3.3,4-3.3c1.6,0,2.9,0.3,3.9,1.2l-1.6,1.6
					c-0.6-0.5-1.5-0.7-2.4-0.7c-1,0-1.5,0.5-1.5,1c0,0.4,0.2,0.8,1.1,0.9l1.6,0.2c2,0.2,3.1,1.3,3.1,3
					C72.8,73.4,70.8,74.5,68.4,74.5z"/>
				<path class="st0" d="M80.7,74.5c-2.9,0-5.2-1.9-5.2-4.9v-9.2h2.7v9.1c0,1.6,0.9,2.6,2.4,2.6c1.5,0,2.4-1,2.4-2.6v-9.1h2.7v9.2
					C85.9,72.6,83.6,74.5,80.7,74.5z"/>
				<path class="st0" d="M91.6,74.5c-2.1,0-3.7-0.5-5.1-1.9l1.8-1.8c0.9,0.9,2.1,1.2,3.4,1.2c1.6,0,2.5-0.6,2.5-1.7
					c0-0.5-0.1-0.9-0.4-1.2c-0.3-0.3-0.6-0.4-1.2-0.5l-1.7-0.2c-1.2-0.2-2.1-0.6-2.7-1.2c-0.7-0.7-1-1.6-1-2.8
					c0-2.5,1.9-4.3,4.9-4.3c1.9,0,3.3,0.5,4.5,1.6l-1.7,1.7c-0.9-0.8-2-1-2.9-1c-1.5,0-2.2,0.8-2.2,1.8c0,0.4,0.1,0.7,0.4,1
					c0.3,0.3,0.7,0.5,1.3,0.6l1.7,0.2c1.3,0.2,2.1,0.5,2.7,1.1c0.7,0.7,1.1,1.7,1.1,3C96.8,73,94.6,74.5,91.6,74.5z"/>
				<path class="st0" d="M106.2,74.4l-0.8-2.5h-5l-0.8,2.5h-2.9l5.1-14h2.1l5.1,14H106.2z"/>
			</g>
		</g>
		<polygon class="st1" points="101.3,68.9 102.9,67.7 104.5,68.9 103.9,66.9 105.6,65.7 103.5,65.7 102.9,63.8 102.3,65.7 
			100.2,65.7 101.9,66.9 		"/>
	</g>
	<polygon class="st2" points="103.6,59.4 109.5,75.8 127.4,75.8 127.4,59.5 	"/>
	<g>
		<defs>
			<polygon id="SVGID_1_" points="103.6,59.4 109.5,75.8 127.4,75.8 127.4,59.5 			"/>
		</defs>
		<clipPath id="SVGID_2_">
			<use xlink:href="#SVGID_1_"  style="overflow:visible;"/>
		</clipPath>
		<g class="st3">
			<g>
				<g>
					<path class="st4" d="M106.3,68.1l-0.9-1.9c1.6-0.1,7.5-0.6,8.3-0.6c0.9,0,1.9,0,2.6,0.7c0.2,0.2,0.4,0.4,0.7,0.7
						c0.5,0.4,0.7,0.3,1.2,0.2c1.6-0.2,4.1-0.5,5.7-0.8c0.3,0,0.5-0.1,0.8-0.1l-0.8,2.2c-1.1,0.2-3.2,0.4-4.4,0.6
						c-0.4,0-0.8,0-1.2-0.2c-0.2-0.2-0.4-0.4-0.7-0.7c-0.7-0.8-1.7-0.8-2.6-0.8C113.6,67.4,107.9,67.8,106.3,68.1z"/>
					<path class="st4" d="M103.9,62.4c2-0.3,7.5-0.9,9.4-0.9c0.9,0,2,0.1,2.7,0.8c0.2,0.2,0.4,0.4,0.7,0.7c0.3,0.2,0.7,0.3,1.2,0.2
						c1.6-0.2,4.1-0.5,5.7-0.8c1-0.2,1.9-0.3,2.8-0.5l0.8-2.4c-1.6,0.5-3.2,0.8-5,1.1c-1.6,0.2-4.1,0.6-5.7,0.8
						c-0.4,0-0.7,0.1-1.2-0.2c-0.2-0.2-0.4-0.4-0.7-0.7c-0.7-0.7-1.7-0.7-2.6-0.7c-1.8-0.1-7.3,0.4-9.1,0.7L103.9,62.4z"/>
					<path class="st4" d="M115.9,70.4c0.9,0,1.9,0,2.6,0.8c0.2,0.2,0.5,0.4,0.7,0.7c0.3,0.2,0.8,0.3,1.2,0.2
						c1.6-0.2,2.3-0.2,3.8-0.4c0.3,0,0.6-0.1,0.9-0.2l-1.5-1.9c-0.3,0-0.6,0.1-0.9,0.2c-1.6,0.2-2.1,0.3-3.7,0.4
						c-0.4,0-0.8,0-1.2-0.2c-0.2-0.2-0.5-0.4-0.7-0.7c-0.8-0.7-1.8-0.7-2.6-0.7c-1.5-0.1-6,0.3-7.5,0.6l-1.4,2.4
						C107.9,71.1,113.4,70.3,115.9,70.4z"/>
					<path class="st4" d="M125.9,72.3c-0.8,0.2-4.5,0.6-6.1,0.8c-0.4,0-0.8,0-1.2-0.2c-0.2-0.2-0.5-0.4-0.7-0.7
						c-0.8-0.7-1.8-0.8-2.6-0.8c-2.6,0-5.1,0.6-7.6,1l-1.3,2.3c3.6-0.6,6.8-1.6,10.3-1.4c0.9,0.1,1.9,0,2.6,0.7
						c0.2,0.2,0.5,0.4,0.7,0.7c0.3,0.2,0.8,0.3,1.2,0.2c1.6-0.2,5.4-0.6,6.2-0.8L125.9,72.3z"/>
					<path class="st4" d="M123,63.5c-1.6,0.2-4.1,0.6-5.7,0.8c-0.4,0-0.7,0.1-1.2-0.2c-0.2-0.2-0.4-0.4-0.7-0.7
						c-0.7-0.7-1.7-0.6-2.6-0.7c-1.5-0.1-7,0.5-8.7,0.7l0.9,1.9c1.8-0.3,7-0.9,8.7-1c0.9,0,2.3,0.2,3,0.9c0.2,0.2,0.4,0.4,0.7,0.7
						c0.3,0.2,0.7,0.3,1.2,0.2c1.6-0.2,4.1-0.5,5.7-0.8c0.3,0,0.5-0.1,0.8-0.1l0.8-2.2C124.9,63.2,124,63.4,123,63.5z"/>
					<g>
						<g>
							<path class="st5" d="M123.7,68.6l0.8-2.2c-0.1,0-0.3,0-0.4,0.1l-0.6,1.8L123.7,68.6z"/>
							<path class="st1" d="M123.7,68.6l0.8-2.2c-0.1,0-0.3,0-0.4,0.1l-0.6,1.8L123.7,68.6z"/>
							<path class="st6" d="M123.7,68.6l0.8-2.2c-0.1,0-0.3,0-0.4,0.1l-0.6,1.8L123.7,68.6z"/>
						</g>
						<g>
							<path class="st5" d="M123.5,68.2c-1.1,0.2-3.2,0.4-4.4,0.6c-0.4,0-0.9,0-1.1-0.2c-0.2-0.2-0.4-0.4-0.6-0.6
								c-0.7-0.7-1.8-0.8-2.6-0.8c-1.2,0-6.9,0.4-8.5,0.6c-0.2,0-0.1,0-0.1,0l0.1,0.4c1.7-0.2,7.6-0.6,8.5-0.6c0.9,0,2.1,0,2.8,0.7
								c0.2,0.2,0.4,0.4,0.7,0.7c0.2,0.2,0.7,0.3,1.2,0.2c1.1-0.1,3.2-0.4,4.4-0.6L123.5,68.2z"/>
							<path class="st1" d="M123.5,68.2c-1.1,0.2-3.2,0.4-4.4,0.6c-0.4,0-0.9,0-1.1-0.2c-0.2-0.2-0.4-0.4-0.6-0.6
								c-0.7-0.7-1.8-0.8-2.6-0.8c-1.2,0-6.9,0.4-8.5,0.6c-0.2,0-0.1,0-0.1,0l0.1,0.4c1.7-0.2,7.6-0.6,8.5-0.6c0.9,0,2.1,0,2.8,0.7
								c0.2,0.2,0.4,0.4,0.7,0.7c0.2,0.2,0.7,0.3,1.2,0.2c1.1-0.1,3.2-0.4,4.4-0.6L123.5,68.2z"/>
							<path class="st6" d="M123.5,68.2c-1.1,0.2-3.2,0.4-4.4,0.6c-0.4,0-0.9,0-1.1-0.2c-0.2-0.2-0.4-0.4-0.6-0.6
								c-0.7-0.7-1.8-0.8-2.6-0.8c-1.2,0-6.9,0.4-8.5,0.6c-0.2,0-0.1,0-0.1,0l0.1,0.4c1.7-0.2,7.6-0.6,8.5-0.6c0.9,0,2.1,0,2.8,0.7
								c0.2,0.2,0.4,0.4,0.7,0.7c0.2,0.2,0.7,0.3,1.2,0.2c1.1-0.1,3.2-0.4,4.4-0.6L123.5,68.2z"/>
						</g>
						<g>
							<path class="st5" d="M125.1,65.3l0.8-2.2c-0.1,0-0.4,0.2-0.4,0.2l-0.6,1.7L125.1,65.3z"/>
							<path class="st1" d="M125.1,65.3l0.8-2.2c-0.1,0-0.4,0.2-0.4,0.2l-0.6,1.7L125.1,65.3z"/>
							<path class="st6" d="M125.1,65.3l0.8-2.2c-0.1,0-0.4,0.2-0.4,0.2l-0.6,1.7L125.1,65.3z"/>
						</g>
						<g>
							<path class="st5" d="M124.8,64.9c-0.3,0-0.5,0.1-0.8,0.1c-1.6,0.3-4.1,0.6-5.7,0.8c-0.4,0-0.8,0.1-1.2-0.2
								c-0.2-0.2-0.4-0.4-0.6-0.6c-0.7-0.7-2-0.9-2.8-0.9c-1.6,0-6.9,0.5-8.5,0.8c0,0,0,0,0,0l-0.2,0.4c1.8-0.3,7.7-0.8,9-0.8
								c0.7,0,1.9-0.1,2.8,0.8c0.2,0.2,0.4,0.4,0.7,0.7c0.2,0.3,0.7,0.3,1.2,0.2c1.6-0.2,4.1-0.5,5.7-0.8c0.3,0,0.5-0.1,0.8-0.1
								L124.8,64.9z"/>
							<path class="st1" d="M124.8,64.9c-0.3,0-0.5,0.1-0.8,0.1c-1.6,0.3-4.1,0.6-5.7,0.8c-0.4,0-0.8,0.1-1.2-0.2
								c-0.2-0.2-0.4-0.4-0.6-0.6c-0.7-0.7-2-0.9-2.8-0.9c-1.6,0-6.9,0.5-8.5,0.8c0,0,0,0,0,0l-0.2,0.4c1.8-0.3,7.7-0.8,9-0.8
								c0.7,0,1.9-0.1,2.8,0.8c0.2,0.2,0.4,0.4,0.7,0.7c0.2,0.3,0.7,0.3,1.2,0.2c1.6-0.2,4.1-0.5,5.7-0.8c0.3,0,0.5-0.1,0.8-0.1
								L124.8,64.9z"/>
							<path class="st6" d="M124.8,64.9c-0.3,0-0.5,0.1-0.8,0.1c-1.6,0.3-4.1,0.6-5.7,0.8c-0.4,0-0.8,0.1-1.2-0.2
								c-0.2-0.2-0.4-0.4-0.6-0.6c-0.7-0.7-2-0.9-2.8-0.9c-1.6,0-6.9,0.5-8.5,0.8c0,0,0,0,0,0l-0.2,0.4c1.8-0.3,7.7-0.8,9-0.8
								c0.7,0,1.9-0.1,2.8,0.8c0.2,0.2,0.4,0.4,0.7,0.7c0.2,0.3,0.7,0.3,1.2,0.2c1.6-0.2,4.1-0.5,5.7-0.8c0.3,0,0.5-0.1,0.8-0.1
								L124.8,64.9z"/>
						</g>
						<g>
							<path class="st5" d="M126.4,62l0.8-2.4c-0.1,0-0.3,0.1-0.4,0.1l-0.7,1.9L126.4,62z"/>
							<path class="st1" d="M126.4,62l0.8-2.4c-0.1,0-0.3,0.1-0.4,0.1l-0.7,1.9L126.4,62z"/>
							<path class="st6" d="M126.4,62l0.8-2.4c-0.1,0-0.3,0.1-0.4,0.1l-0.7,1.9L126.4,62z"/>
						</g>
						<g>
							<path class="st5" d="M126.1,61.6c-0.9,0.2-1.9,0.3-2.8,0.5c-1.6,0.3-4.1,0.6-5.7,0.8c-0.4,0-0.8,0-1.2-0.2
								c-0.2-0.2-0.4-0.4-0.6-0.6c-0.7-0.7-1.8-0.8-2.7-0.8c-1.7,0-7.2,0.5-9.1,0.8c0,0,0,0,0,0l-0.2,0.4c2-0.3,7.4-0.9,9.3-0.9
								c0.9,0,2.1,0,2.9,0.8c0.2,0.2,0.4,0.4,0.7,0.7c0.2,0.2,0.7,0.3,1.2,0.2c1.6-0.2,4.1-0.5,5.7-0.8c1-0.2,1.9-0.3,2.8-0.5
								L126.1,61.6z"/>
							<path class="st1" d="M126.1,61.6c-0.9,0.2-1.9,0.3-2.8,0.5c-1.6,0.3-4.1,0.6-5.7,0.8c-0.4,0-0.8,0-1.2-0.2
								c-0.2-0.2-0.4-0.4-0.6-0.6c-0.7-0.7-1.8-0.8-2.7-0.8c-1.7,0-7.2,0.5-9.1,0.8c0,0,0,0,0,0l-0.2,0.4c2-0.3,7.4-0.9,9.3-0.9
								c0.9,0,2.1,0,2.9,0.8c0.2,0.2,0.4,0.4,0.7,0.7c0.2,0.2,0.7,0.3,1.2,0.2c1.6-0.2,4.1-0.5,5.7-0.8c1-0.2,1.9-0.3,2.8-0.5
								L126.1,61.6z"/>
							<path class="st6" d="M126.1,61.6c-0.9,0.2-1.9,0.3-2.8,0.5c-1.6,0.3-4.1,0.6-5.7,0.8c-0.4,0-0.8,0-1.2-0.2
								c-0.2-0.2-0.4-0.4-0.6-0.6c-0.7-0.7-1.8-0.8-2.7-0.8c-1.7,0-7.2,0.5-9.1,0.8c0,0,0,0,0,0l-0.2,0.4c2-0.3,7.4-0.9,9.3-0.9
								c0.9,0,2.1,0,2.9,0.8c0.2,0.2,0.4,0.4,0.7,0.7c0.2,0.2,0.7,0.3,1.2,0.2c1.6-0.2,4.1-0.5,5.7-0.8c1-0.2,1.9-0.3,2.8-0.5
								L126.1,61.6z"/>
						</g>
					</g>
					<g>
						<path class="st4" d="M125.8,63c-0.9,0.2-1.9,0.4-2.9,0.5c-1.6,0.2-4.1,0.6-5.7,0.8c-0.3,0-0.8,0.1-1.1-0.2
							c0.1,0.1,0.2,0.2,0.3,0.2c0.3,0.2,0.7,0.3,1.1,0.3c1.6-0.1,4.3-0.5,5.9-0.8c0.7-0.1,1.3-0.2,1.9-0.3"/>
						<path class="st4" d="M119.3,70.5c1.6-0.2,2.2-0.2,3.8-0.4c0.3,0,0.5-0.1,0.7-0.1l-0.2-0.3c-0.3,0-0.6,0.1-0.9,0.2
							c-1.6,0.2-2.1,0.3-3.7,0.4c-0.3,0-0.8,0-1.1-0.2c0.1,0,0.3,0.2,0.4,0.3C118.5,70.5,118.9,70.5,119.3,70.5z"/>
						<path class="st4" d="M105.9,66.4c1.5-0.2,6.9-0.6,8.1-0.6c0.7,0,1.5,0,2.1,0.4c-0.7-0.6-1.7-0.7-2.5-0.7
							c-1.2,0-6.7,0.4-8.2,0.6L105.9,66.4z"/>
						<polyline class="st4" points="105.9,66.4 105.4,66.2 106.3,68.1 						"/>
						<path class="st4" d="M124.5,66.4c-0.3,0-0.5,0.1-0.8,0.1c-1.6,0.2-4.1,0.6-5.7,0.8c-0.3,0-0.7,0.1-1.1-0.2
							c0,0,0.2,0.2,0.3,0.3c0.2,0.2,0.6,0.3,1,0.2c1.5-0.1,4.1-0.5,5.7-0.7"/>
						<path class="st4" d="M120.2,73.4c0.3,0,0.8-0.1,1.1-0.1c1.1-0.1,4-0.4,5-0.6l-0.3-0.3c-0.8,0.2-4.5,0.6-6.1,0.8
							c-0.3,0-0.8,0-1.1-0.2c0.1,0.1,0.3,0.2,0.4,0.3C119.4,73.4,119.8,73.5,120.2,73.4z"/>
						<g>
							<polygon class="st5" points="127.5,74.2 125.9,72.3 125.9,72.3 125.8,72.7 126.8,73.9 							"/>
							<polygon class="st1" points="127.5,74.2 125.9,72.3 125.9,72.3 125.8,72.7 126.8,73.9 							"/>
							<polygon class="st6" points="127.5,74.2 125.9,72.3 125.9,72.3 125.8,72.7 126.8,73.9 							"/>
						</g>
						<g>
							<path class="st5" d="M126.8,73.9c-1.3,0.2-4.4,0.5-5.8,0.7c-0.4,0-0.9,0.1-1.2-0.2c-0.2-0.2-0.5-0.4-0.7-0.7
								c-0.8-0.7-1.9-0.8-2.8-0.8c-2.5,0-8,1.1-9.6,1.5l-0.3,0.4c2.3-0.4,7.1-1.5,10-1.5c0.9,0,2.2,0,3,0.7c0.2,0.2,0.5,0.4,0.7,0.7
								c0.3,0.3,0.8,0.3,1.2,0.2c1.4-0.1,4.5-0.5,5.8-0.7l0,0c0,0,0.2,0,0.4-0.1L126.8,73.9z"/>
							<path class="st1" d="M126.8,73.9c-1.3,0.2-4.4,0.5-5.8,0.7c-0.4,0-0.9,0.1-1.2-0.2c-0.2-0.2-0.5-0.4-0.7-0.7
								c-0.8-0.7-1.9-0.8-2.8-0.8c-2.5,0-8,1.1-9.6,1.5l-0.3,0.4c2.3-0.4,7.1-1.5,10-1.5c0.9,0,2.2,0,3,0.7c0.2,0.2,0.5,0.4,0.7,0.7
								c0.3,0.3,0.8,0.3,1.2,0.2c1.4-0.1,4.5-0.5,5.8-0.7l0,0c0,0,0.2,0,0.4-0.1L126.8,73.9z"/>
							<path class="st6" d="M126.8,73.9c-1.3,0.2-4.4,0.5-5.8,0.7c-0.4,0-0.9,0.1-1.2-0.2c-0.2-0.2-0.5-0.4-0.7-0.7
								c-0.8-0.7-1.9-0.8-2.8-0.8c-2.5,0-8,1.1-9.6,1.5l-0.3,0.4c2.3-0.4,7.1-1.5,10-1.5c0.9,0,2.2,0,3,0.7c0.2,0.2,0.5,0.4,0.7,0.7
								c0.3,0.3,0.8,0.3,1.2,0.2c1.4-0.1,4.5-0.5,5.8-0.7l0,0c0,0,0.2,0,0.4-0.1L126.8,73.9z"/>
						</g>
						<path class="st4" d="M107.8,72.4c2.5-0.5,5-1,7.6-1c0.8,0,1.8,0.1,2.5,0.7c-0.6-0.3-1.2-0.4-1.9-0.4c-2.6,0-5.5,0.6-8,1.1
							L107.8,72.4z"/>
						<polygon class="st4" points="108,72.8 107.1,74.4 106.4,74.8 107.8,72.4 						"/>
						<path class="st4" d="M104.7,63.7c1.7-0.3,6.9-0.8,8.4-0.8c1.1,0,1.7,0,2.2,0.4c-0.7-0.6-1.7-0.7-2.5-0.7
							c-1.5,0-6.9,0.5-8.6,0.8L104.7,63.7z"/>
						<polygon class="st4" points="104.2,63.4 105.1,65.3 105.3,64.9 104.7,63.7 						"/>
						<path class="st4" d="M127.2,59.5c-1.6,0.4-5.4,1.1-10.7,1.8c-0.3,0-0.8,0-1.1-0.2c0.5,0.5,1,0.6,1.4,0.5
							c2.7-0.2,8.9-1.3,9.9-1.5"/>
						<path class="st4" d="M103,60.5c1.9-0.3,7.3-0.8,9.1-0.8c0.8,0,1.9,0,2.6,0.7c-0.5-0.3-0.9-0.4-2.1-0.4c-1.8,0-7.2,0.5-9,0.8
							L103,60.5z"/>
						<polygon class="st4" points="103.5,60.7 104.1,62 103.9,62.4 103,60.5 						"/>
						<g>
							<polygon class="st5" points="125.1,71.5 124.9,71.2 124.9,71.2 123.6,69.6 123.6,69.6 123.5,70 124.5,71.2 							"/>
							<polygon class="st1" points="125.1,71.5 124.9,71.2 124.9,71.2 123.6,69.6 123.6,69.6 123.5,70 124.5,71.2 							"/>
							<polygon class="st6" points="125.1,71.5 124.9,71.2 124.9,71.2 123.6,69.6 123.6,69.6 123.5,70 124.5,71.2 							"/>
						</g>
						<g>
							<path class="st5" d="M124.5,71.2c-0.2,0-0.4,0-0.6,0.1c-1.5,0.2-2.4,0.3-3.8,0.4c-0.4,0-0.9,0.1-1.2-0.3
								c-0.2-0.2-0.5-0.4-0.7-0.7c-0.8-0.7-1.9-0.8-2.8-0.8c-1.6,0-3.1,0.2-4.7,0.4c-0.7,0.1-4.2,0.5-4.9,0.7l-0.2,0.4
								c2.3-0.4,7.5-1,9.9-1.1c0.9,0,2.2,0,3,0.7c0.2,0.2,0.5,0.4,0.7,0.7c0.2,0.3,0.8,0.3,1.2,0.2c1.5-0.1,2.3-0.2,3.8-0.4
								c0.3,0,0.6-0.1,0.9-0.2L124.5,71.2z"/>
							<path class="st1" d="M124.5,71.2c-0.2,0-0.4,0-0.6,0.1c-1.5,0.2-2.4,0.3-3.8,0.4c-0.4,0-0.9,0.1-1.2-0.3
								c-0.2-0.2-0.5-0.4-0.7-0.7c-0.8-0.7-1.9-0.8-2.8-0.8c-1.6,0-3.1,0.2-4.7,0.4c-0.7,0.1-4.2,0.5-4.9,0.7l-0.2,0.4
								c2.3-0.4,7.5-1,9.9-1.1c0.9,0,2.2,0,3,0.7c0.2,0.2,0.5,0.4,0.7,0.7c0.2,0.3,0.8,0.3,1.2,0.2c1.5-0.1,2.3-0.2,3.8-0.4
								c0.3,0,0.6-0.1,0.9-0.2L124.5,71.2z"/>
							<path class="st6" d="M124.5,71.2c-0.2,0-0.4,0-0.6,0.1c-1.5,0.2-2.4,0.3-3.8,0.4c-0.4,0-0.9,0.1-1.2-0.3
								c-0.2-0.2-0.5-0.4-0.7-0.7c-0.8-0.7-1.9-0.8-2.8-0.8c-1.6,0-3.1,0.2-4.7,0.4c-0.7,0.1-4.2,0.5-4.9,0.7l-0.2,0.4
								c2.3-0.4,7.5-1,9.9-1.1c0.9,0,2.2,0,3,0.7c0.2,0.2,0.5,0.4,0.7,0.7c0.2,0.3,0.8,0.3,1.2,0.2c1.5-0.1,2.3-0.2,3.8-0.4
								c0.3,0,0.6-0.1,0.9-0.2L124.5,71.2z"/>
						</g>
						<path class="st4" d="M107,69.1c1.5-0.3,6-0.7,7.5-0.6c0.8,0,1.8,0,2.6,0.7c-0.5-0.3-1.2-0.4-1.9-0.4c-1.5,0-6.4,0.4-7.9,0.6
							L107,69.1z"/>
						<polygon class="st4" points="107,69.1 105.6,71.5 106.3,71 107.2,69.4 						"/>
					</g>
				</g>
			</g>
			<g>
				<g>
					<linearGradient id="SVGID_3_" gradientUnits="userSpaceOnUse" x1="108.7727" y1="71.5494" x2="121.547" y2="62.2684">
						<stop  offset="0.2099" style="stop-color:#ED1C2E"/>
						<stop  offset="0.2328" style="stop-color:#EE2931"/>
						<stop  offset="0.2678" style="stop-color:#EF443C"/>
						<stop  offset="0.3104" style="stop-color:#F26653"/>
						<stop  offset="0.3591" style="stop-color:#F58B74"/>
						<stop  offset="0.4122" style="stop-color:#FABAA6"/>
						<stop  offset="0.4254" style="stop-color:#FBC7B6"/>
						<stop  offset="0.4328" style="stop-color:#FBC2B0"/>
						<stop  offset="0.4429" style="stop-color:#F9B4A0"/>
						<stop  offset="0.4544" style="stop-color:#F79E87"/>
						<stop  offset="0.4671" style="stop-color:#F4816A"/>
						<stop  offset="0.4805" style="stop-color:#F15748"/>
						<stop  offset="0.4917" style="stop-color:#ED1C2E"/>
					</linearGradient>
					<path class="st7" d="M106.3,68.1l-0.9-1.9c1.6-0.1,7.5-0.6,8.3-0.6c0.9,0,1.9,0,2.6,0.7c0.2,0.2,0.4,0.4,0.7,0.7
						c0.5,0.4,0.7,0.3,1.2,0.2c1.6-0.2,4.1-0.5,5.7-0.8c0.3,0,0.5-0.1,0.8-0.1l-0.8,2.2c-1.1,0.2-3.2,0.4-4.4,0.6
						c-0.4,0-0.8,0-1.2-0.2c-0.2-0.2-0.4-0.4-0.7-0.7c-0.7-0.8-1.7-0.8-2.6-0.8C113.6,67.4,107.9,67.8,106.3,68.1z"/>
					
						<linearGradient id="SVGID_4_" gradientUnits="userSpaceOnUse" x1="-223.5457" y1="271.3432" x2="-204.4064" y2="257.4377" gradientTransform="matrix(0.8351 -4.570000e-02 -5.580000e-02 0.8276 308.8086 -167.8697)">
						<stop  offset="0.1713" style="stop-color:#ED1C2E"/>
						<stop  offset="0.1924" style="stop-color:#EE2931"/>
						<stop  offset="0.2246" style="stop-color:#EF443C"/>
						<stop  offset="0.264" style="stop-color:#F26653"/>
						<stop  offset="0.3089" style="stop-color:#F58B74"/>
						<stop  offset="0.358" style="stop-color:#FABAA6"/>
						<stop  offset="0.3702" style="stop-color:#FBC7B6"/>
						<stop  offset="0.3744" style="stop-color:#FBC2AF"/>
						<stop  offset="0.3804" style="stop-color:#F9B39F"/>
						<stop  offset="0.3873" style="stop-color:#F79C86"/>
						<stop  offset="0.3949" style="stop-color:#F47E67"/>
						<stop  offset="0.4031" style="stop-color:#F05144"/>
						<stop  offset="0.4088" style="stop-color:#ED1C2E"/>
					</linearGradient>
					<path class="st8" d="M103.9,62.4c2-0.3,7.5-0.9,9.4-0.9c0.9,0,2,0.1,2.7,0.8c0.2,0.2,0.4,0.4,0.7,0.7c0.3,0.2,0.7,0.3,1.2,0.2
						c1.6-0.2,4.1-0.5,5.7-0.8c1-0.2,1.9-0.3,2.8-0.5l0.8-2.4c-1.6,0.5-3.2,0.8-5,1.1c-1.6,0.2-4.1,0.6-5.7,0.8
						c-0.4,0-0.7,0.1-1.2-0.2c-0.2-0.2-0.4-0.4-0.7-0.7c-0.7-0.7-1.7-0.7-2.6-0.7c-1.8-0.1-7.3,0.4-9.1,0.7L103.9,62.4z"/>
					
						<linearGradient id="SVGID_5_" gradientUnits="userSpaceOnUse" x1="-220.8539" y1="282.2222" x2="-206.1181" y2="271.516" gradientTransform="matrix(0.8351 -4.570000e-02 -5.580000e-02 0.8276 308.8086 -167.8697)">
						<stop  offset="0.3591" style="stop-color:#ED1C2E"/>
						<stop  offset="0.3838" style="stop-color:#EE2931"/>
						<stop  offset="0.4214" style="stop-color:#EF443C"/>
						<stop  offset="0.4673" style="stop-color:#F26653"/>
						<stop  offset="0.5197" style="stop-color:#F58B74"/>
						<stop  offset="0.577" style="stop-color:#FABAA6"/>
						<stop  offset="0.5912" style="stop-color:#FBC7B6"/>
						<stop  offset="0.596" style="stop-color:#FBC2AF"/>
						<stop  offset="0.6028" style="stop-color:#F9B39F"/>
						<stop  offset="0.6107" style="stop-color:#F79C86"/>
						<stop  offset="0.6195" style="stop-color:#F47E67"/>
						<stop  offset="0.6288" style="stop-color:#F05144"/>
						<stop  offset="0.6354" style="stop-color:#ED1C2E"/>
					</linearGradient>
					<path class="st9" d="M115.9,70.4c0.9,0,1.9,0,2.6,0.8c0.2,0.2,0.5,0.4,0.7,0.7c0.3,0.2,0.8,0.3,1.2,0.2
						c1.6-0.2,2.3-0.2,3.8-0.4c0.3,0,0.6-0.1,0.9-0.2l-1.5-1.9c-0.3,0-0.6,0.1-0.9,0.2c-1.6,0.2-2.1,0.3-3.7,0.4
						c-0.4,0-0.8,0-1.2-0.2c-0.2-0.2-0.5-0.4-0.7-0.7c-0.8-0.7-1.8-0.7-2.6-0.7c-1.5-0.1-6,0.3-7.5,0.6l-1.4,2.4
						C107.9,71.1,113.4,70.3,115.9,70.4z"/>
					
						<linearGradient id="SVGID_6_" gradientUnits="userSpaceOnUse" x1="-218.9966" y1="286.6064" x2="-203.6095" y2="274.6981" gradientTransform="matrix(0.8351 -4.570000e-02 -5.580000e-02 0.8276 308.8086 -167.8697)">
						<stop  offset="0.4088" style="stop-color:#ED1C2E"/>
						<stop  offset="0.4294" style="stop-color:#EE2931"/>
						<stop  offset="0.4607" style="stop-color:#EF443C"/>
						<stop  offset="0.499" style="stop-color:#F26653"/>
						<stop  offset="0.5427" style="stop-color:#F58B74"/>
						<stop  offset="0.5904" style="stop-color:#FABAA6"/>
						<stop  offset="0.6022" style="stop-color:#FBC7B6"/>
						<stop  offset="0.6077" style="stop-color:#FBC2AF"/>
						<stop  offset="0.6153" style="stop-color:#F9B39F"/>
						<stop  offset="0.6242" style="stop-color:#F79C86"/>
						<stop  offset="0.634" style="stop-color:#F47E67"/>
						<stop  offset="0.6445" style="stop-color:#F05144"/>
						<stop  offset="0.6519" style="stop-color:#ED1C2E"/>
					</linearGradient>
					<path class="st10" d="M125.9,72.3c-0.8,0.2-4.5,0.6-6.1,0.8c-0.4,0-0.8,0-1.2-0.2c-0.2-0.2-0.5-0.4-0.7-0.7
						c-0.8-0.7-1.8-0.8-2.6-0.8c-2.6,0-5.1,0.6-7.6,1l-1.3,2.3c3.6-0.6,6.8-1.6,10.3-1.4c0.9,0.1,1.9,0,2.6,0.7
						c0.2,0.2,0.5,0.4,0.7,0.7c0.3,0.2,0.8,0.3,1.2,0.2c1.6-0.2,5.4-0.6,6.2-0.8L125.9,72.3z"/>
					<linearGradient id="SVGID_7_" gradientUnits="userSpaceOnUse" x1="107.9247" y1="69.2235" x2="122.5942" y2="58.5655">
						<stop  offset="0.2099" style="stop-color:#ED1C2E"/>
						<stop  offset="0.2305" style="stop-color:#EE2931"/>
						<stop  offset="0.2618" style="stop-color:#EF443C"/>
						<stop  offset="0.3001" style="stop-color:#F26653"/>
						<stop  offset="0.3438" style="stop-color:#F58B74"/>
						<stop  offset="0.3915" style="stop-color:#FABAA6"/>
						<stop  offset="0.4033" style="stop-color:#FBC7B6"/>
						<stop  offset="0.4088" style="stop-color:#FBC2AF"/>
						<stop  offset="0.4164" style="stop-color:#F9B39F"/>
						<stop  offset="0.4253" style="stop-color:#F79C86"/>
						<stop  offset="0.4351" style="stop-color:#F47E67"/>
						<stop  offset="0.4456" style="stop-color:#F05144"/>
						<stop  offset="0.453" style="stop-color:#ED1C2E"/>
					</linearGradient>
					<path class="st11" d="M123,63.5c-1.6,0.2-4.1,0.6-5.7,0.8c-0.4,0-0.7,0.1-1.2-0.2c-0.2-0.2-0.4-0.4-0.7-0.7
						c-0.7-0.7-1.7-0.6-2.6-0.7c-1.5-0.1-7,0.5-8.7,0.7l0.9,1.9c1.8-0.3,7-0.9,8.7-1c0.9,0,2.3,0.2,3,0.9c0.2,0.2,0.4,0.4,0.7,0.7
						c0.3,0.2,0.7,0.3,1.2,0.2c1.6-0.2,4.1-0.5,5.7-0.8c0.3,0,0.5-0.1,0.8-0.1l0.8-2.2C124.9,63.2,124,63.4,123,63.5z"/>
					<g>
						<g>
							<path class="st5" d="M123.7,68.6l0.8-2.2c-0.1,0-0.3,0-0.4,0.1l-0.6,1.8L123.7,68.6z"/>
							<linearGradient id="SVGID_8_" gradientUnits="userSpaceOnUse" x1="124.3032" y1="66.4334" x2="123.639" y2="68.2489">
								<stop  offset="0" style="stop-color:#F7DEDD"/>
								<stop  offset="0.1058" style="stop-color:#F2D5D4"/>
								<stop  offset="0.2852" style="stop-color:#E7BABD"/>
								<stop  offset="0.5163" style="stop-color:#D48E97"/>
								<stop  offset="0.787" style="stop-color:#BA5362"/>
								<stop  offset="1" style="stop-color:#A41F35"/>
							</linearGradient>
							<path class="st12" d="M123.7,68.6l0.8-2.2c-0.1,0-0.3,0-0.4,0.1l-0.6,1.8L123.7,68.6z"/>
						</g>
						<g>
							<path class="st5" d="M123.5,68.2c-1.1,0.2-3.2,0.4-4.4,0.6c-0.4,0-0.9,0-1.1-0.2c-0.2-0.2-0.4-0.4-0.6-0.6
								c-0.7-0.7-1.8-0.8-2.6-0.8c-1.2,0-6.9,0.4-8.5,0.6c-0.2,0-0.1,0-0.1,0l0.1,0.4c1.7-0.2,7.6-0.6,8.5-0.6c0.9,0,2.1,0,2.8,0.7
								c0.2,0.2,0.4,0.4,0.7,0.7c0.2,0.2,0.7,0.3,1.2,0.2c1.1-0.1,3.2-0.4,4.4-0.6L123.5,68.2z"/>
							<linearGradient id="SVGID_9_" gradientUnits="userSpaceOnUse" x1="106.121" y1="68.1152" x2="123.7246" y2="68.1152">
								<stop  offset="0" style="stop-color:#A41F35"/>
								<stop  offset="4.317093e-02" style="stop-color:#AE3548"/>
								<stop  offset="0.1572" style="stop-color:#C56975"/>
								<stop  offset="0.264" style="stop-color:#D79398"/>
								<stop  offset="0.3605" style="stop-color:#E4B0B2"/>
								<stop  offset="0.4433" style="stop-color:#ECC2C1"/>
								<stop  offset="0.5028" style="stop-color:#EFC9C7"/>
								<stop  offset="0.513" style="stop-color:#ECC1C1"/>
								<stop  offset="0.528" style="stop-color:#E3AEB0"/>
								<stop  offset="0.5461" style="stop-color:#D58D94"/>
								<stop  offset="0.5664" style="stop-color:#C1606D"/>
								<stop  offset="0.5884" style="stop-color:#A7273B"/>
								<stop  offset="0.5912" style="stop-color:#A41F35"/>
								<stop  offset="0.6263" style="stop-color:#AE3548"/>
								<stop  offset="0.719" style="stop-color:#C56975"/>
								<stop  offset="0.8058" style="stop-color:#D79398"/>
								<stop  offset="0.8843" style="stop-color:#E4B0B2"/>
								<stop  offset="0.9516" style="stop-color:#ECC2C1"/>
								<stop  offset="1" style="stop-color:#EFC9C7"/>
							</linearGradient>
							<path class="st13" d="M123.5,68.2c-1.1,0.2-3.2,0.4-4.4,0.6c-0.4,0-0.9,0-1.1-0.2c-0.2-0.2-0.4-0.4-0.6-0.6
								c-0.7-0.7-1.8-0.8-2.6-0.8c-1.2,0-6.9,0.4-8.5,0.6c-0.2,0-0.1,0-0.1,0l0.1,0.4c1.7-0.2,7.6-0.6,8.5-0.6c0.9,0,2.1,0,2.8,0.7
								c0.2,0.2,0.4,0.4,0.7,0.7c0.2,0.2,0.7,0.3,1.2,0.2c1.1-0.1,3.2-0.4,4.4-0.6L123.5,68.2z"/>
						</g>
						<g>
							<path class="st5" d="M125.1,65.3l0.8-2.2c-0.1,0-0.4,0.2-0.4,0.2l-0.6,1.7L125.1,65.3z"/>
							<linearGradient id="SVGID_10_" gradientUnits="userSpaceOnUse" x1="125.6521" y1="63.1288" x2="124.9778" y2="64.972">
								<stop  offset="0" style="stop-color:#F7DEDD"/>
								<stop  offset="0.1058" style="stop-color:#F2D5D4"/>
								<stop  offset="0.2852" style="stop-color:#E7BABD"/>
								<stop  offset="0.5163" style="stop-color:#D48E97"/>
								<stop  offset="0.787" style="stop-color:#BA5362"/>
								<stop  offset="1" style="stop-color:#A41F35"/>
							</linearGradient>
							<path class="st14" d="M125.1,65.3l0.8-2.2c-0.1,0-0.4,0.2-0.4,0.2l-0.6,1.7L125.1,65.3z"/>
						</g>
						<g>
							<path class="st5" d="M124.8,64.9c-0.3,0-0.5,0.1-0.8,0.1c-1.6,0.3-4.1,0.6-5.7,0.8c-0.4,0-0.8,0.1-1.2-0.2
								c-0.2-0.2-0.4-0.4-0.6-0.6c-0.7-0.7-2-0.9-2.8-0.9c-1.6,0-6.9,0.5-8.5,0.8c0,0,0,0,0,0l-0.2,0.4c1.8-0.3,7.7-0.8,9-0.8
								c0.7,0,1.9-0.1,2.8,0.8c0.2,0.2,0.4,0.4,0.7,0.7c0.2,0.3,0.7,0.3,1.2,0.2c1.6-0.2,4.1-0.5,5.7-0.8c0.3,0,0.5-0.1,0.8-0.1
								L124.8,64.9z"/>
							<linearGradient id="SVGID_11_" gradientUnits="userSpaceOnUse" x1="105.0985" y1="65.1605" x2="125.0754" y2="65.1605">
								<stop  offset="0" style="stop-color:#A41F35"/>
								<stop  offset="4.032451e-02" style="stop-color:#AE3548"/>
								<stop  offset="0.1468" style="stop-color:#C56975"/>
								<stop  offset="0.2466" style="stop-color:#D79398"/>
								<stop  offset="0.3367" style="stop-color:#E4B0B2"/>
								<stop  offset="0.414" style="stop-color:#ECC2C1"/>
								<stop  offset="0.4696" style="stop-color:#EFC9C7"/>
								<stop  offset="0.4798" style="stop-color:#ECC1C1"/>
								<stop  offset="0.4949" style="stop-color:#E3AEB0"/>
								<stop  offset="0.5129" style="stop-color:#D58D94"/>
								<stop  offset="0.5333" style="stop-color:#C1606D"/>
								<stop  offset="0.5553" style="stop-color:#A7273B"/>
								<stop  offset="0.558" style="stop-color:#A41F35"/>
								<stop  offset="0.596" style="stop-color:#AE3548"/>
								<stop  offset="0.6962" style="stop-color:#C56975"/>
								<stop  offset="0.7901" style="stop-color:#D79398"/>
								<stop  offset="0.8749" style="stop-color:#E4B0B2"/>
								<stop  offset="0.9477" style="stop-color:#ECC2C1"/>
								<stop  offset="1" style="stop-color:#EFC9C7"/>
							</linearGradient>
							<path class="st15" d="M124.8,64.9c-0.3,0-0.5,0.1-0.8,0.1c-1.6,0.3-4.1,0.6-5.7,0.8c-0.4,0-0.8,0.1-1.2-0.2
								c-0.2-0.2-0.4-0.4-0.6-0.6c-0.7-0.7-2-0.9-2.8-0.9c-1.6,0-6.9,0.5-8.5,0.8c0,0,0,0,0,0l-0.2,0.4c1.8-0.3,7.7-0.8,9-0.8
								c0.7,0,1.9-0.1,2.8,0.8c0.2,0.2,0.4,0.4,0.7,0.7c0.2,0.3,0.7,0.3,1.2,0.2c1.6-0.2,4.1-0.5,5.7-0.8c0.3,0,0.5-0.1,0.8-0.1
								L124.8,64.9z"/>
						</g>
						<g>
							<path class="st5" d="M126.4,62l0.8-2.4c-0.1,0-0.3,0.1-0.4,0.1l-0.7,1.9L126.4,62z"/>
							<linearGradient id="SVGID_12_" gradientUnits="userSpaceOnUse" x1="127.0287" y1="59.651" x2="126.3001" y2="61.6427">
								<stop  offset="0" style="stop-color:#F7DEDD"/>
								<stop  offset="0.1058" style="stop-color:#F2D5D4"/>
								<stop  offset="0.2852" style="stop-color:#E7BABD"/>
								<stop  offset="0.5163" style="stop-color:#D48E97"/>
								<stop  offset="0.787" style="stop-color:#BA5362"/>
								<stop  offset="1" style="stop-color:#A41F35"/>
							</linearGradient>
							<path class="st16" d="M126.4,62l0.8-2.4c-0.1,0-0.3,0.1-0.4,0.1l-0.7,1.9L126.4,62z"/>
						</g>
						<g>
							<path class="st5" d="M126.1,61.6c-0.9,0.2-1.9,0.3-2.8,0.5c-1.6,0.3-4.1,0.6-5.7,0.8c-0.4,0-0.8,0-1.2-0.2
								c-0.2-0.2-0.4-0.4-0.6-0.6c-0.7-0.7-1.8-0.8-2.7-0.8c-1.7,0-7.2,0.5-9.1,0.8c0,0,0,0,0,0l-0.2,0.4c2-0.3,7.4-0.9,9.3-0.9
								c0.9,0,2.1,0,2.9,0.8c0.2,0.2,0.4,0.4,0.7,0.7c0.2,0.2,0.7,0.3,1.2,0.2c1.6-0.2,4.1-0.5,5.7-0.8c1-0.2,1.9-0.3,2.8-0.5
								L126.1,61.6z"/>
							<linearGradient id="SVGID_13_" gradientUnits="userSpaceOnUse" x1="103.8835" y1="62.244" x2="126.3877" y2="62.244">
								<stop  offset="0" style="stop-color:#A41F35"/>
								<stop  offset="3.842692e-02" style="stop-color:#AE3548"/>
								<stop  offset="0.1399" style="stop-color:#C56975"/>
								<stop  offset="0.235" style="stop-color:#D79398"/>
								<stop  offset="0.3208" style="stop-color:#E4B0B2"/>
								<stop  offset="0.3946" style="stop-color:#ECC2C1"/>
								<stop  offset="0.4475" style="stop-color:#EFC9C7"/>
								<stop  offset="0.4571" style="stop-color:#ECC1C1"/>
								<stop  offset="0.4712" style="stop-color:#E3AEB0"/>
								<stop  offset="0.4881" style="stop-color:#D58D94"/>
								<stop  offset="0.5072" style="stop-color:#C1606D"/>
								<stop  offset="0.5278" style="stop-color:#A7273B"/>
								<stop  offset="0.5304" style="stop-color:#A41F35"/>
								<stop  offset="0.5707" style="stop-color:#AE3548"/>
								<stop  offset="0.6772" style="stop-color:#C56975"/>
								<stop  offset="0.777" style="stop-color:#D79398"/>
								<stop  offset="0.8671" style="stop-color:#E4B0B2"/>
								<stop  offset="0.9444" style="stop-color:#ECC2C1"/>
								<stop  offset="1" style="stop-color:#EFC9C7"/>
							</linearGradient>
							<path class="st17" d="M126.1,61.6c-0.9,0.2-1.9,0.3-2.8,0.5c-1.6,0.3-4.1,0.6-5.7,0.8c-0.4,0-0.8,0-1.2-0.2
								c-0.2-0.2-0.4-0.4-0.6-0.6c-0.7-0.7-1.8-0.8-2.7-0.8c-1.7,0-7.2,0.5-9.1,0.8c0,0,0,0,0,0l-0.2,0.4c2-0.3,7.4-0.9,9.3-0.9
								c0.9,0,2.1,0,2.9,0.8c0.2,0.2,0.4,0.4,0.7,0.7c0.2,0.2,0.7,0.3,1.2,0.2c1.6-0.2,4.1-0.5,5.7-0.8c1-0.2,1.9-0.3,2.8-0.5
								L126.1,61.6z"/>
						</g>
					</g>
					<g>
						<linearGradient id="SVGID_14_" gradientUnits="userSpaceOnUse" x1="125.5505" y1="63.0876" x2="116.3378" y2="64.4933">
							<stop  offset="0" style="stop-color:#FABEAB"/>
							<stop  offset="1" style="stop-color:#F15B4A"/>
						</linearGradient>
						<path class="st18" d="M125.8,63c-0.9,0.2-1.9,0.4-2.9,0.5c-1.6,0.2-4.1,0.6-5.7,0.8c-0.3,0-0.8,0.1-1.1-0.2
							c0.1,0.1,0.2,0.2,0.3,0.2c0.3,0.2,0.7,0.3,1.1,0.3c1.6-0.1,4.3-0.5,5.9-0.8c0.7-0.1,1.3-0.2,1.9-0.3"/>
						<linearGradient id="SVGID_15_" gradientUnits="userSpaceOnUse" x1="123.5978" y1="69.5203" x2="117.9892" y2="70.3761">
							<stop  offset="0" style="stop-color:#FABEAB"/>
							<stop  offset="1" style="stop-color:#F15B4A"/>
						</linearGradient>
						<path class="st19" d="M119.3,70.5c1.6-0.2,2.2-0.2,3.8-0.4c0.3,0,0.5-0.1,0.7-0.1l-0.2-0.3c-0.3,0-0.6,0.1-0.9,0.2
							c-1.6,0.2-2.1,0.3-3.7,0.4c-0.3,0-0.8,0-1.1-0.2c0.1,0,0.3,0.2,0.4,0.3C118.5,70.5,118.9,70.5,119.3,70.5z"/>
						<linearGradient id="SVGID_16_" gradientUnits="userSpaceOnUse" x1="105.7836" y1="66.1094" x2="115.9644" y2="65.8622">
							<stop  offset="0" style="stop-color:#F6967F"/>
							<stop  offset="6.203532e-03" style="stop-color:#F69780"/>
							<stop  offset="0.2516" style="stop-color:#F9AC97"/>
							<stop  offset="0.4991" style="stop-color:#FABCA9"/>
							<stop  offset="0.7479" style="stop-color:#FBC5B4"/>
							<stop  offset="1" style="stop-color:#FBC8B7"/>
						</linearGradient>
						<path class="st20" d="M105.9,66.4c1.5-0.2,6.9-0.6,8.1-0.6c0.7,0,1.5,0,2.1,0.4c-0.7-0.6-1.7-0.7-2.5-0.7
							c-1.2,0-6.7,0.4-8.2,0.6L105.9,66.4z"/>
						<linearGradient id="SVGID_17_" gradientUnits="userSpaceOnUse" x1="106.2648" y1="68.1083" x2="105.4975" y2="65.9118">
							<stop  offset="0" style="stop-color:#FBC7B6"/>
							<stop  offset="0.1199" style="stop-color:#F9AF9B"/>
							<stop  offset="0.2931" style="stop-color:#F6947D"/>
							<stop  offset="0.4684" style="stop-color:#F48069"/>
							<stop  offset="0.6442" style="stop-color:#F3715C"/>
							<stop  offset="0.821" style="stop-color:#F26754"/>
							<stop  offset="1" style="stop-color:#F26351"/>
						</linearGradient>
						<polyline class="st21" points="105.9,66.4 105.4,66.2 106.3,68.1 						"/>
						<linearGradient id="SVGID_18_" gradientUnits="userSpaceOnUse" x1="124.2745" y1="66.3277" x2="117.0607" y2="67.4283">
							<stop  offset="0" style="stop-color:#FABEAB"/>
							<stop  offset="1" style="stop-color:#F15B4A"/>
						</linearGradient>
						<path class="st22" d="M124.5,66.4c-0.3,0-0.5,0.1-0.8,0.1c-1.6,0.2-4.1,0.6-5.7,0.8c-0.3,0-0.7,0.1-1.1-0.2
							c0,0,0.2,0.2,0.3,0.3c0.2,0.2,0.6,0.3,1,0.2c1.5-0.1,4.1-0.5,5.7-0.7"/>
						<linearGradient id="SVGID_19_" gradientUnits="userSpaceOnUse" x1="125.9307" y1="72.2518" x2="118.8734" y2="73.3285">
							<stop  offset="0" style="stop-color:#FABEAB"/>
							<stop  offset="1" style="stop-color:#F15B4A"/>
						</linearGradient>
						<path class="st23" d="M120.2,73.4c0.3,0,0.8-0.1,1.1-0.1c1.1-0.1,4-0.4,5-0.6l-0.3-0.3c-0.8,0.2-4.5,0.6-6.1,0.8
							c-0.3,0-0.8,0-1.1-0.2c0.1,0.1,0.3,0.2,0.4,0.3C119.4,73.4,119.8,73.5,120.2,73.4z"/>
						<g>
							<polygon class="st5" points="127.5,74.2 125.9,72.3 125.9,72.3 125.8,72.7 126.8,73.9 							"/>
							<linearGradient id="SVGID_20_" gradientUnits="userSpaceOnUse" x1="126.9005" y1="72.7556" x2="126.5517" y2="73.709">
								<stop  offset="0" style="stop-color:#FAE9E7"/>
								<stop  offset="0.1018" style="stop-color:#F6DFDE"/>
								<stop  offset="0.2743" style="stop-color:#EAC4C7"/>
								<stop  offset="0.4966" style="stop-color:#D899A0"/>
								<stop  offset="0.7569" style="stop-color:#BE5D6C"/>
								<stop  offset="1" style="stop-color:#A41F35"/>
							</linearGradient>
							<polygon class="st24" points="127.5,74.2 125.9,72.3 125.9,72.3 125.8,72.7 126.8,73.9 							"/>
						</g>
						<g>
							<path class="st5" d="M126.8,73.9c-1.3,0.2-4.4,0.5-5.8,0.7c-0.4,0-0.9,0.1-1.2-0.2c-0.2-0.2-0.5-0.4-0.7-0.7
								c-0.8-0.7-1.9-0.8-2.8-0.8c-2.5,0-8,1.1-9.6,1.5l-0.3,0.4c2.3-0.4,7.1-1.5,10-1.5c0.9,0,2.2,0,3,0.7c0.2,0.2,0.5,0.4,0.7,0.7
								c0.3,0.3,0.8,0.3,1.2,0.2c1.4-0.1,4.5-0.5,5.8-0.7l0,0c0,0,0.2,0,0.4-0.1L126.8,73.9z"/>
							<linearGradient id="SVGID_21_" gradientUnits="userSpaceOnUse" x1="106.4126" y1="73.9603" x2="127.4854" y2="73.9603">
								<stop  offset="0" style="stop-color:#A41F35"/>
								<stop  offset="1.932503e-02" style="stop-color:#A7273C"/>
								<stop  offset="0.169" style="stop-color:#C1606D"/>
								<stop  offset="0.3074" style="stop-color:#D58D94"/>
								<stop  offset="0.4301" style="stop-color:#E3AEB0"/>
								<stop  offset="0.5325" style="stop-color:#ECC1C1"/>
								<stop  offset="0.6022" style="stop-color:#EFC9C7"/>
								<stop  offset="0.6112" style="stop-color:#ECC1C1"/>
								<stop  offset="0.6243" style="stop-color:#E3AEB0"/>
								<stop  offset="0.6401" style="stop-color:#D58D94"/>
								<stop  offset="0.6579" style="stop-color:#C1606D"/>
								<stop  offset="0.6772" style="stop-color:#A7273B"/>
								<stop  offset="0.6796" style="stop-color:#A41F35"/>
								<stop  offset="0.7071" style="stop-color:#AE3548"/>
								<stop  offset="0.7797" style="stop-color:#C56975"/>
								<stop  offset="0.8478" style="stop-color:#D79398"/>
								<stop  offset="0.9093" style="stop-color:#E4B0B2"/>
								<stop  offset="0.9621" style="stop-color:#ECC2C1"/>
								<stop  offset="1" style="stop-color:#EFC9C7"/>
							</linearGradient>
							<path class="st25" d="M126.8,73.9c-1.3,0.2-4.4,0.5-5.8,0.7c-0.4,0-0.9,0.1-1.2-0.2c-0.2-0.2-0.5-0.4-0.7-0.7
								c-0.8-0.7-1.9-0.8-2.8-0.8c-2.5,0-8,1.1-9.6,1.5l-0.3,0.4c2.3-0.4,7.1-1.5,10-1.5c0.9,0,2.2,0,3,0.7c0.2,0.2,0.5,0.4,0.7,0.7
								c0.3,0.3,0.8,0.3,1.2,0.2c1.4-0.1,4.5-0.5,5.8-0.7l0,0c0,0,0.2,0,0.4-0.1L126.8,73.9z"/>
						</g>
						<linearGradient id="SVGID_22_" gradientUnits="userSpaceOnUse" x1="108.1938" y1="72.1588" x2="117.7645" y2="71.9264">
							<stop  offset="0" style="stop-color:#F6967F"/>
							<stop  offset="6.203532e-03" style="stop-color:#F69780"/>
							<stop  offset="0.2516" style="stop-color:#F9AC97"/>
							<stop  offset="0.4991" style="stop-color:#FABCA9"/>
							<stop  offset="0.7479" style="stop-color:#FBC5B4"/>
							<stop  offset="1" style="stop-color:#FBC8B7"/>
						</linearGradient>
						<path class="st26" d="M107.8,72.4c2.5-0.5,5-1,7.6-1c0.8,0,1.8,0.1,2.5,0.7c-0.6-0.3-1.2-0.4-1.9-0.4c-2.6,0-5.5,0.6-8,1.1
							L107.8,72.4z"/>
						<linearGradient id="SVGID_23_" gradientUnits="userSpaceOnUse" x1="106.7886" y1="73.205" x2="108.0672" y2="74.9749">
							<stop  offset="0" style="stop-color:#FBC7B6"/>
							<stop  offset="0.1199" style="stop-color:#F9AF9B"/>
							<stop  offset="0.2931" style="stop-color:#F6947D"/>
							<stop  offset="0.4684" style="stop-color:#F48069"/>
							<stop  offset="0.6442" style="stop-color:#F3715C"/>
							<stop  offset="0.821" style="stop-color:#F26754"/>
							<stop  offset="1" style="stop-color:#F26351"/>
						</linearGradient>
						<polygon class="st27" points="108,72.8 107.1,74.4 106.4,74.8 107.8,72.4 						"/>
						<linearGradient id="SVGID_24_" gradientUnits="userSpaceOnUse" x1="104.6413" y1="63.2483" x2="115.2117" y2="62.9916">
							<stop  offset="0" style="stop-color:#F6967F"/>
							<stop  offset="6.203532e-03" style="stop-color:#F69780"/>
							<stop  offset="0.2516" style="stop-color:#F9AC97"/>
							<stop  offset="0.4991" style="stop-color:#FABCA9"/>
							<stop  offset="0.7479" style="stop-color:#FBC5B4"/>
							<stop  offset="1" style="stop-color:#FBC8B7"/>
						</linearGradient>
						<path class="st28" d="M104.7,63.7c1.7-0.3,6.9-0.8,8.4-0.8c1.1,0,1.7,0,2.2,0.4c-0.7-0.6-1.7-0.7-2.5-0.7
							c-1.5,0-6.9,0.5-8.6,0.8L104.7,63.7z"/>
						<linearGradient id="SVGID_25_" gradientUnits="userSpaceOnUse" x1="105.1629" y1="65.3329" x2="104.3954" y2="63.136">
							<stop  offset="0" style="stop-color:#FBC7B6"/>
							<stop  offset="0.1199" style="stop-color:#F9AF9B"/>
							<stop  offset="0.2931" style="stop-color:#F6947D"/>
							<stop  offset="0.4684" style="stop-color:#F48069"/>
							<stop  offset="0.6442" style="stop-color:#F3715C"/>
							<stop  offset="0.821" style="stop-color:#F26754"/>
							<stop  offset="1" style="stop-color:#F26351"/>
						</linearGradient>
						<polygon class="st29" points="104.2,63.4 105.1,65.3 105.3,64.9 104.7,63.7 						"/>
						<linearGradient id="SVGID_26_" gradientUnits="userSpaceOnUse" x1="126.8962" y1="59.8009" x2="115.5848" y2="61.5267">
							<stop  offset="0" style="stop-color:#FABEAB"/>
							<stop  offset="1" style="stop-color:#F15B4A"/>
						</linearGradient>
						<path class="st30" d="M127.2,59.5c-1.6,0.4-5.4,1.1-10.7,1.8c-0.3,0-0.8,0-1.1-0.2c0.5,0.5,1,0.6,1.4,0.5
							c2.7-0.2,8.9-1.3,9.9-1.5"/>
						<linearGradient id="SVGID_27_" gradientUnits="userSpaceOnUse" x1="103.4295" y1="60.313" x2="114.4502" y2="60.0453">
							<stop  offset="0" style="stop-color:#F6967F"/>
							<stop  offset="6.203532e-03" style="stop-color:#F69780"/>
							<stop  offset="0.2516" style="stop-color:#F9AC97"/>
							<stop  offset="0.4991" style="stop-color:#FABCA9"/>
							<stop  offset="0.7479" style="stop-color:#FBC5B4"/>
							<stop  offset="1" style="stop-color:#FBC8B7"/>
						</linearGradient>
						<path class="st31" d="M103,60.5c1.9-0.3,7.3-0.8,9.1-0.8c0.8,0,1.9,0,2.6,0.7c-0.5-0.3-0.9-0.4-2.1-0.4c-1.8,0-7.2,0.5-9,0.8
							L103,60.5z"/>
						<linearGradient id="SVGID_28_" gradientUnits="userSpaceOnUse" x1="103.9294" y1="62.4446" x2="103.1477" y2="60.2068">
							<stop  offset="0" style="stop-color:#FBC7B6"/>
							<stop  offset="0.1199" style="stop-color:#F9AF9B"/>
							<stop  offset="0.2931" style="stop-color:#F6947D"/>
							<stop  offset="0.4684" style="stop-color:#F48069"/>
							<stop  offset="0.6442" style="stop-color:#F3715C"/>
							<stop  offset="0.821" style="stop-color:#F26754"/>
							<stop  offset="1" style="stop-color:#F26351"/>
						</linearGradient>
						<polygon class="st32" points="103.5,60.7 104.1,62 103.9,62.4 103,60.5 						"/>
						<g>
							<polygon class="st5" points="125.1,71.5 124.9,71.2 124.9,71.2 123.6,69.6 123.6,69.6 123.5,70 124.5,71.2 							"/>
							<linearGradient id="SVGID_29_" gradientUnits="userSpaceOnUse" x1="124.5529" y1="70.0236" x2="124.2045" y2="70.9758">
								<stop  offset="0" style="stop-color:#FAE9E7"/>
								<stop  offset="0.1296" style="stop-color:#F6DFDE"/>
								<stop  offset="0.3491" style="stop-color:#EBC4C4"/>
								<stop  offset="0.6317" style="stop-color:#D9999A"/>
								<stop  offset="0.9634" style="stop-color:#C05D61"/>
								<stop  offset="1" style="stop-color:#BD565A"/>
							</linearGradient>
							<polygon class="st33" points="125.1,71.5 124.9,71.2 124.9,71.2 123.6,69.6 123.6,69.6 123.5,70 124.5,71.2 							"/>
						</g>
						<g>
							<path class="st5" d="M124.5,71.2c-0.2,0-0.4,0-0.6,0.1c-1.5,0.2-2.4,0.3-3.8,0.4c-0.4,0-0.9,0.1-1.2-0.3
								c-0.2-0.2-0.5-0.4-0.7-0.7c-0.8-0.7-1.9-0.8-2.8-0.8c-1.6,0-3.1,0.2-4.7,0.4c-0.7,0.1-4.2,0.5-4.9,0.7l-0.2,0.4
								c2.3-0.4,7.5-1,9.9-1.1c0.9,0,2.2,0,3,0.7c0.2,0.2,0.5,0.4,0.7,0.7c0.2,0.3,0.8,0.3,1.2,0.2c1.5-0.1,2.3-0.2,3.8-0.4
								c0.3,0,0.6-0.1,0.9-0.2L124.5,71.2z"/>
							<linearGradient id="SVGID_30_" gradientUnits="userSpaceOnUse" x1="105.6469" y1="71.0288" x2="125.1385" y2="71.0288">
								<stop  offset="0" style="stop-color:#A41F35"/>
								<stop  offset="4.981261e-02" style="stop-color:#AE3548"/>
								<stop  offset="0.1814" style="stop-color:#C56975"/>
								<stop  offset="0.3046" style="stop-color:#D79398"/>
								<stop  offset="0.4159" style="stop-color:#E4B0B2"/>
								<stop  offset="0.5115" style="stop-color:#ECC2C1"/>
								<stop  offset="0.5801" style="stop-color:#EFC9C7"/>
								<stop  offset="0.5891" style="stop-color:#ECC1C1"/>
								<stop  offset="0.6022" style="stop-color:#E3AEB0"/>
								<stop  offset="0.618" style="stop-color:#D58D94"/>
								<stop  offset="0.6358" style="stop-color:#C1606D"/>
								<stop  offset="0.6551" style="stop-color:#A7273B"/>
								<stop  offset="0.6575" style="stop-color:#A41F35"/>
								<stop  offset="0.6869" style="stop-color:#AE3548"/>
								<stop  offset="0.7646" style="stop-color:#C56975"/>
								<stop  offset="0.8373" style="stop-color:#D79398"/>
								<stop  offset="0.903" style="stop-color:#E4B0B2"/>
								<stop  offset="0.9595" style="stop-color:#ECC2C1"/>
								<stop  offset="1" style="stop-color:#EFC9C7"/>
							</linearGradient>
							<path class="st34" d="M124.5,71.2c-0.2,0-0.4,0-0.6,0.1c-1.5,0.2-2.4,0.3-3.8,0.4c-0.4,0-0.9,0.1-1.2-0.3
								c-0.2-0.2-0.5-0.4-0.7-0.7c-0.8-0.7-1.9-0.8-2.8-0.8c-1.6,0-3.1,0.2-4.7,0.4c-0.7,0.1-4.2,0.5-4.9,0.7l-0.2,0.4
								c2.3-0.4,7.5-1,9.9-1.1c0.9,0,2.2,0,3,0.7c0.2,0.2,0.5,0.4,0.7,0.7c0.2,0.3,0.8,0.3,1.2,0.2c1.5-0.1,2.3-0.2,3.8-0.4
								c0.3,0,0.6-0.1,0.9-0.2L124.5,71.2z"/>
						</g>
						<linearGradient id="SVGID_31_" gradientUnits="userSpaceOnUse" x1="107.4163" y1="69.0395" x2="116.9016" y2="68.8091">
							<stop  offset="0" style="stop-color:#F6967F"/>
							<stop  offset="6.203532e-03" style="stop-color:#F69780"/>
							<stop  offset="0.2516" style="stop-color:#F9AC97"/>
							<stop  offset="0.4991" style="stop-color:#FABCA9"/>
							<stop  offset="0.7479" style="stop-color:#FBC5B4"/>
							<stop  offset="1" style="stop-color:#FBC8B7"/>
						</linearGradient>
						<path class="st35" d="M107,69.1c1.5-0.3,6-0.7,7.5-0.6c0.8,0,1.8,0,2.6,0.7c-0.5-0.3-1.2-0.4-1.9-0.4c-1.5,0-6.4,0.4-7.9,0.6
							L107,69.1z"/>
						<linearGradient id="SVGID_32_" gradientUnits="userSpaceOnUse" x1="106.021" y1="69.8744" x2="107.2575" y2="71.5859">
							<stop  offset="0" style="stop-color:#FBC7B6"/>
							<stop  offset="0.1199" style="stop-color:#F9AF9B"/>
							<stop  offset="0.2931" style="stop-color:#F6947D"/>
							<stop  offset="0.4684" style="stop-color:#F48069"/>
							<stop  offset="0.6442" style="stop-color:#F3715C"/>
							<stop  offset="0.821" style="stop-color:#F26754"/>
							<stop  offset="1" style="stop-color:#F26351"/>
						</linearGradient>
						<polygon class="st36" points="107,69.1 105.6,71.5 106.3,71 107.2,69.4 						"/>
					</g>
				</g>
			</g>
		</g>
	</g>
</g>
<g>
	<path class="st0" d="M120.9,3.9C120.9,3.9,120.9,3.9,120.9,3.9l-8.3-3.4C97.3,14.1,54.3,1.1,26.1,1.4C13.2,1.6,3.3,7.7,1,25.5
		c-1.9,14.6,3.2,28.6,2.8,28.8c0,0,0,0,0,0l7.8,2.3c15.4-13.6,59.8-2.2,88-3.4c12.4-0.5,22.5-5.7,24.4-23.5
		C125.6,14.9,120.9,3.9,120.9,3.9z"/>
	<path class="st0" d="M11.6,57.1c0,0-0.1,0-0.1,0l-7.8-2.2c-0.1,0-0.3-0.1-0.4-0.2c-0.1-0.1-0.1-0.3-0.1-0.4c0-0.2-0.2-0.9-0.4-1.7
		C1.8,48.3-1.1,37,0.4,25.4C2.5,9.4,11.1,1.1,26.1,0.9c9.4-0.1,20.7,1.3,31.6,2.6c10.6,1.3,21.6,2.7,31,2.7c11.3,0,19-2,23.6-6.1
		c0.2-0.1,0.4-0.2,0.6-0.1l8.2,3.3c0,0,0,0,0.1,0c0.1,0,0.3,0.2,0.3,0.3c0,0.1,4.7,11.3,3.1,26c-1.7,15.7-9.6,23.3-24.9,24
		c-1.4,0.1-2.9,0.1-4.5,0.1c-8.4,0-18-0.9-27.4-1.7c-9.6-0.9-19.5-1.7-28.4-1.7c-13.6,0-22.3,2.1-27.3,6.6
		C11.9,57.1,11.8,57.1,11.6,57.1z M4.3,53.9l7.2,2.1c5.3-4.5,14.2-6.7,27.8-6.7c8.9,0,18.8,0.9,28.5,1.7c9.3,0.8,19,1.7,27.3,1.7h0
		c1.6,0,3.1,0,4.5-0.1c14.7-0.6,22.3-8,23.9-23c1.4-13.3-2.3-23.7-3-25.3l-7.8-3.2c-4.9,4.2-12.6,6.1-24.1,6.1
		c-9.5,0-20.5-1.4-31.1-2.7C46.7,3.2,35.4,1.9,26.1,2C11.6,2.2,3.5,9.9,1.5,25.6C0,36.9,2.8,48.1,3.9,52.3
		C4.1,53.1,4.2,53.6,4.3,53.9z"/>
</g>
<g>
	<path class="st1" d="M119.9,4.9c0,0,11.4,33.9-8.6,44.3C91,59.8,31.7,36.1,5.2,53.3c0.1-0.8-11.3-35.9,8.5-47.7
		C31.8-5.2,89.1,19.3,119.9,4.9z"/>
</g>
<g>
	<g>
		<path class="st37" d="M26.6,26.9c1.6-1.1,2.4-2.7,2.4-4.8c0-4.2-2.7-6.3-7.9-6.3H9.8v24.5h11.7c4,0,8.7-1.9,8.7-7.3
			C30.2,30.1,28.9,28,26.6,26.9z M20.8,35.2h-4.9V20.9h4.3c2.6,0,3,1.1,3,2.2c0,1.5-0.9,2.3-2.6,2.3h-1.4L17,29.8h3.9
			c2.2,0,3.2,0.9,3.2,2.8C24.1,33.8,23.7,35.2,20.8,35.2z"/>
	</g>
	<g>
		<rect x="32.4" y="15.7" class="st37" width="6.1" height="24.5"/>
	</g>
	<g>
		<polygon class="st37" points="54.8,29.5 51.8,15.6 42.1,15.6 42.1,40.1 48.2,40.1 48.2,25.1 51.8,40.1 57.9,40.1 61.5,25 
			61.5,40.1 67.7,40.1 67.7,15.6 57.9,15.6 		"/>
	</g>
	<g>
		<path class="st37" d="M88.2,27.1c1.6-1.1,2.5-2.7,2.5-4.8c0-4.2-2.6-6.3-7.9-6.3l-11.4,0l-0.1,24.5l11.7,0c4,0,8.7-1.9,8.7-7.3
			C91.7,30.3,90.5,28.2,88.2,27.1z M82.3,35.4l-4.9,0l0-14.4l4.3,0c2.6,0,3,1.1,3,2.2c0,1.5-0.9,2.3-2.6,2.3l-1.4,0L78.5,30l3.9,0
			c2.2,0,3.2,0.9,3.1,2.8C85.6,33.9,85.2,35.4,82.3,35.4z"/>
	</g>
	<g>
		<g>
			<path class="st37" d="M105,15.7c-6.8,0-12.3,5.5-12.3,12.3c0,6.8,5.5,12.3,12.2,12.3c6.8,0,12.3-5.5,12.3-12.2
				C117.3,21.2,111.8,15.7,105,15.7z M104.9,34.4c-3.5,0-6.4-3-6.4-6.5c0-3.5,3-6.5,6.5-6.5c3.5,0,6.4,2.9,6.4,6.5
				C111.3,31.5,108.5,34.4,104.9,34.4z"/>
		</g>
	</g>
</g>
<g>
	<g>
		<path class="st0" d="M125.4,49.2c0,1.8-1.4,3.1-3.1,3.1c-1.7,0-3.1-1.4-3.1-3.1c0-1.7,1.4-3.1,3.1-3.1
			C124,46.1,125.4,47.5,125.4,49.2z M119.6,49.2c0,1.5,1.2,2.7,2.7,2.7s2.7-1.2,2.7-2.7c0-1.5-1.2-2.7-2.7-2.7
			S119.6,47.8,119.6,49.2z M121.7,51h-0.6v-3.6h1.4c0.7,0,1,0.5,1,0.9c0,0.4-0.3,0.8-0.8,0.8v0c0.5,0,0.6,0.2,0.6,0.9
			c0,0.2,0.1,0.7,0.1,0.9H123c-0.1-0.3-0.1-0.7-0.2-1.2c0-0.4-0.4-0.4-0.5-0.4h-0.6V51z M121.7,49h0.8c0.4,0,0.5-0.3,0.5-0.6
			c0-0.3-0.1-0.6-0.5-0.6h-0.8V49z"/>
	</g>
</g>
</svg>
